<svg width="20" height="21" viewBox="0 0 20 21" fill="none" xmlns="http://www.w3.org/2000/svg">
<path fill-rule="evenodd" clip-rule="evenodd" d="M20 10.8948C20 16.4176 15.5228 20.8948 10 20.8948C4.47715 20.8948 0 16.4176 0 10.8948C0 5.37193 4.47715 0.894775 10 0.894775C15.5228 0.894775 20 5.37193 20 10.8948ZM5.25 10.8947C5.25 10.4805 5.58579 10.1447 6 10.1447H9.25V6.8949C9.25 6.48068 9.58579 6.1449 10 6.1449C10.4142 6.1449 10.75 6.48068 10.75 6.8949V10.1447H14C14.4142 10.1447 14.75 10.4805 14.75 10.8947C14.75 11.3089 14.4142 11.6447 14 11.6447H10.75V14.8949C10.75 15.3091 10.4142 15.6449 10 15.6449C9.58579 15.6449 9.25 15.3091 9.25 14.8949V11.6447H6C5.58579 11.6447 5.25 11.3089 5.25 10.8947Z" fill="#1B1B1B"/>
</svg>
